<svg width="55" height="77" viewBox="0 0 55 77" fill="none" xmlns="http://www.w3.org/2000/svg">
<path fill-rule="evenodd" clip-rule="evenodd" d="M30.4426 34.6386L30.7025 34.1559C33.3386 35.6906 39.4426 39.3762 42.7693 41.8416C42.7445 43.9208 42.5242 49.401 41.8411 54.6881C41.5317 57.3243 40.2594 63.8589 37.6455 68.9084C39.1431 66.9158 42.4871 61.3713 43.8832 55.1337C44.3658 53.3639 45.4648 48.0495 45.9995 40.9505C43.153 39.3045 36.1678 35.5223 30.9995 33.5619L31.3708 32.7822C35.195 33.8342 44.1282 36.5025 49.2668 38.7599C49.1554 41.4332 48.4945 48.4505 46.7421 55.1337C45.8366 58.5866 43.3411 67.4753 36.2718 76C36.3692 75.8994 36.4878 75.78 36.6268 75.6398C38.1304 74.1248 42.0297 70.1956 47.5218 61.6312C50.2693 56.5446 52.0886 50.6782 54.3906 36.7178C48.9698 34.9728 41.5812 33.0421 31.5936 32.0025L31.8906 31.4084C35.6035 31.2104 44.2767 31.0743 49.2668 32.1139C49.8361 28.3144 49.6307 19.4975 45.1455 14.6262C46.1356 17.3366 47.9822 24.0569 46.5564 29.255C42.9302 29.2302 34.9426 29.3812 32.002 30.1832L31.5193 29.552C33.6975 28.2525 38.6703 25.5421 41.1356 25.0965C41.1437 25.0372 41.1518 24.9774 41.16 24.9172C41.8679 19.7099 42.9794 11.5342 35.455 1C37.2743 4.75 40.2148 13.802 38.3139 23.2772L30.9252 28.6609L30.3683 27.8812L32.6332 25.5421C32.2247 24.8738 31.0069 23.3812 29.403 22.7574C30.1703 23.6733 31.2074 25.698 29.2173 26.4703H26.2842C25.4302 26.2475 24.1975 25.1931 26.0985 22.7574C25.3188 23.1163 23.6035 24.1757 22.9797 25.5421L24.6876 27.5842L24.3163 28.3267L17.1876 23.3144C16.346 19.6881 15.6579 10.1559 19.6381 1.03713C19.3179 1.62679 19.0096 2.18896 18.7137 2.72871C14.6863 10.0738 12.9351 13.2678 14.1802 25.0965C15.5787 25.3936 19.3634 26.6856 23.3139 29.4777L23.0911 29.9604C19.7 29.6386 12.0936 29.0619 8.79654 29.3292C8.22723 26.6807 7.70495 20.0322 10.1703 14.6262C6.27179 20.1213 5.49209 24.1312 6.1604 32.2252C8.96981 31.6807 16.2891 30.755 23.0911 31.4084L23.3139 32.0025C18.3139 32.6337 6.851 34.4604 0.999512 36.7178C1.16335 37.5953 1.32241 38.4557 1.47833 39.2991C2.91241 47.0566 4.08131 53.3797 6.27179 58.3639C9.98489 65.5044 13.1555 69.1728 17.0124 73.6354C17.6678 74.3937 18.343 75.1749 19.0441 76C13.0663 67.7203 6.87327 57.3243 6.1604 38.7599C10.096 37.1881 19.1926 33.7921 24.0936 32.7822L24.4277 33.5619C20.4178 35.2574 11.7668 39.0941 9.53911 40.8762C9.5637 41.2066 9.5879 41.5383 9.61221 41.8715C10.1754 49.5913 10.7979 58.1239 17.596 68.9084C15.4797 64.2673 13.0886 58.9802 12.5837 41.8416C15.5168 39.8738 22.0441 35.5817 24.6876 34.1559L24.9847 34.6386C23.648 35.4926 20.5441 37.6386 18.8213 39.3911C18.7099 40.1089 18.554 42.7847 18.8213 47.745C20.096 50.0594 23.6555 55.0668 27.6951 56.5817C29.7619 55.7401 34.4079 52.7946 36.4574 47.745C36.6183 46.5569 36.903 43.2376 36.7545 39.4653C35.5168 38.3391 32.5218 35.797 30.4426 34.6386ZM23.7596 36.5693L23.7441 36.582C22.9562 37.2323 21.1699 38.7067 20.3437 39.651C20.3561 41.198 20.4699 44.7302 20.6779 46.3341C21.6061 48.1658 24.4056 52.2079 27.7323 53.7227C29.4402 52.8316 33.4056 49.9876 34.7125 46.3341C34.7193 46.2627 34.7267 46.1848 34.7348 46.1008C34.8589 44.8017 35.1209 42.0593 35.1209 39.7995C34.3907 39.0198 32.7001 37.2821 31.7794 36.5693C32.2373 37.1633 33.3165 38.6411 33.9699 39.7995C34.0318 40.5297 33.9912 42.3384 33.7472 43.8836C33.5244 45.2945 31.6308 49.193 27.7323 50.8267C25.9873 50.1071 22.4081 47.711 21.7546 43.8836C21.6432 43.3638 21.4427 41.9307 21.5318 39.9109C21.924 39.3095 22.6108 38.2847 23.1643 37.4587C23.3968 37.1118 23.6058 36.7999 23.7596 36.5693Z" fill="#EDF1F7"/>
<path d="M30.7025 34.1559L30.8282 33.9399L30.6049 33.8099L30.4823 34.0374L30.7025 34.1559ZM30.4426 34.6386L30.2224 34.5201L30.1056 34.7371L30.3209 34.857L30.4426 34.6386ZM42.7693 41.8416L43.0193 41.8446L43.0208 41.7168L42.9181 41.6407L42.7693 41.8416ZM41.8411 54.6881L41.5931 54.6561L41.5928 54.659L41.8411 54.6881ZM37.6455 68.9084L37.4235 68.7935L37.8454 69.0586L37.6455 68.9084ZM43.8832 55.1337L43.6417 55.0678L43.6392 55.0791L43.8832 55.1337ZM45.9995 40.9505L46.2488 40.9693L46.2606 40.8127L46.1246 40.7341L45.9995 40.9505ZM30.9995 33.5619L30.7738 33.4544L30.6571 33.6994L30.9108 33.7956L30.9995 33.5619ZM31.3708 32.7822L31.4371 32.5411L31.2351 32.4856L31.1451 32.6747L31.3708 32.7822ZM49.2668 38.7599L49.5166 38.7703L49.5237 38.5997L49.3674 38.531L49.2668 38.7599ZM46.7421 55.1337L46.5002 55.0703L46.7421 55.1337ZM36.2718 76L36.0793 75.8404L36.4513 76.1739L36.2718 76ZM36.6268 75.6398L36.4494 75.4637H36.4494L36.6268 75.6398ZM47.5218 61.6312L47.7322 61.7661L47.7373 61.7582L47.7417 61.75L47.5218 61.6312ZM54.3906 36.7178L54.6373 36.7585L54.6723 36.5459L54.4672 36.4799L54.3906 36.7178ZM31.5936 32.0025L31.37 31.8907L31.2084 32.2137L31.5677 32.2511L31.5936 32.0025ZM31.8906 31.4084L31.8773 31.1588L31.732 31.1665L31.667 31.2966L31.8906 31.4084ZM49.2668 32.1139L49.2158 32.3586L49.4749 32.4126L49.5141 32.1509L49.2668 32.1139ZM45.1455 14.6262L45.3295 14.4569L44.9107 14.712L45.1455 14.6262ZM46.5564 29.255L46.5547 29.5049L46.7467 29.5063L46.7975 29.3211L46.5564 29.255ZM32.002 30.1832L31.8034 30.335L31.9055 30.4686L32.0678 30.4244L32.002 30.1832ZM31.5193 29.552L31.3912 29.3373L31.1503 29.481L31.3207 29.7038L31.5193 29.552ZM41.1356 25.0965L41.1801 25.3426L41.3589 25.3102L41.3834 25.1302L41.1356 25.0965ZM41.16 24.9172L41.4077 24.9509L41.16 24.9172ZM35.455 1L35.6584 0.85469L35.23 1.10912L35.455 1ZM38.3139 23.2772L38.4611 23.4793L38.5398 23.4219L38.559 23.3264L38.3139 23.2772ZM30.9252 28.6609L30.7218 28.8062L30.8685 29.0116L31.0725 28.8629L30.9252 28.6609ZM30.3683 27.8812L30.1887 27.7073L30.0438 27.857L30.1649 28.0265L30.3683 27.8812ZM32.6332 25.5421L32.8128 25.716L32.9474 25.5769L32.8465 25.4117L32.6332 25.5421ZM29.403 22.7574L29.4936 22.5244L29.2113 22.918L29.403 22.7574ZM29.2173 26.4703V26.7203H29.2641L29.3078 26.7034L29.2173 26.4703ZM26.2842 26.4703L26.221 26.7122L26.2521 26.7203H26.2842V26.4703ZM26.0985 22.7574L26.2956 22.9112L25.994 22.5303L26.0985 22.7574ZM22.9797 25.5421L22.7523 25.4383L22.6868 25.5816L22.7879 25.7025L22.9797 25.5421ZM24.6876 27.5842L24.9112 27.696L24.9845 27.5494L24.8794 27.4238L24.6876 27.5842ZM24.3163 28.3267L24.1725 28.5312L24.4101 28.6983L24.5399 28.4385L24.3163 28.3267ZM17.1876 23.3144L16.9441 23.3709L16.9657 23.4639L17.0438 23.5189L17.1876 23.3144ZM19.6381 1.03713L19.8672 1.13714L19.4184 0.917814L19.6381 1.03713ZM18.7137 2.72871L18.4945 2.60851L18.4945 2.60851L18.7137 2.72871ZM14.1802 25.0965L13.9316 25.1227L13.9506 25.3033L14.1283 25.3411L14.1802 25.0965ZM23.3139 29.4777L23.5409 29.5825L23.628 29.3936L23.4582 29.2736L23.3139 29.4777ZM23.0911 29.9604L23.0675 30.2093L23.2438 30.226L23.3181 30.0652L23.0911 29.9604ZM8.79654 29.3292L8.55212 29.3817L8.5982 29.5961L8.81674 29.5784L8.79654 29.3292ZM10.1703 14.6262L10.3978 14.73L9.9664 14.4816L10.1703 14.6262ZM6.1604 32.2252L5.91125 32.2458L5.9342 32.5237L6.20797 32.4707L6.1604 32.2252ZM23.0911 31.4084L23.3252 31.3206L23.2704 31.1745L23.115 31.1596L23.0911 31.4084ZM23.3139 32.0025L23.3452 32.2505L23.659 32.2109L23.5479 31.9147L23.3139 32.0025ZM0.999512 36.7178L0.909529 36.4846L0.715608 36.5594L0.753759 36.7637L0.999512 36.7178ZM1.47833 39.2991L1.72416 39.2537L1.47833 39.2991ZM6.27179 58.3639L6.04292 58.4644L6.04621 58.4719L6.04998 58.4792L6.27179 58.3639ZM17.0124 73.6354L16.8232 73.7988L17.0124 73.6354ZM19.0441 76L18.8535 76.1619L19.2468 75.8537L19.0441 76ZM6.1604 38.7599L6.06768 38.5277L5.90381 38.5932L5.91059 38.7695L6.1604 38.7599ZM24.0936 32.7822L24.3234 32.6837L24.243 32.4961L24.0431 32.5373L24.0936 32.7822ZM24.4277 33.5619L24.5251 33.7921L24.7565 33.6943L24.6575 33.4634L24.4277 33.5619ZM9.53911 40.8762L9.38294 40.681L9.28002 40.7634L9.2898 40.8948L9.53911 40.8762ZM9.61221 41.8715L9.36287 41.8897V41.8897L9.61221 41.8715ZM17.596 68.9084L17.3846 69.0417L17.8235 68.8047L17.596 68.9084ZM12.5837 41.8416L12.4444 41.634L12.3297 41.7109L12.3338 41.8489L12.5837 41.8416ZM24.6876 34.1559L24.9005 34.0249L24.7768 33.8238L24.569 33.9359L24.6876 34.1559ZM24.9847 34.6386L25.1193 34.8493L25.3264 34.7169L25.1976 34.5076L24.9847 34.6386ZM18.8213 39.3911L18.643 39.2158L18.5866 39.2732L18.5742 39.3528L18.8213 39.3911ZM18.8213 47.745L18.5717 47.7585L18.5747 47.8156L18.6023 47.8657L18.8213 47.745ZM27.6951 56.5817L27.6073 56.8158L27.6988 56.8501L27.7893 56.8132L27.6951 56.5817ZM36.4574 47.745L36.6891 47.8391L36.7009 47.8098L36.7052 47.7786L36.4574 47.745ZM36.7545 39.4653L37.0043 39.4555L37.0001 39.3509L36.9227 39.2804L36.7545 39.4653ZM23.7441 36.582L23.585 36.3892L23.585 36.3892L23.7441 36.582ZM23.7596 36.5693L23.9676 36.7079L23.6004 36.3765L23.7596 36.5693ZM20.3437 39.651L20.1556 39.4863L20.093 39.5579L20.0937 39.653L20.3437 39.651ZM20.6779 46.3341L20.4299 46.3663L20.4355 46.4088L20.4549 46.4471L20.6779 46.3341ZM27.7323 53.7227L27.6287 53.9503L27.7398 54.0008L27.848 53.9444L27.7323 53.7227ZM34.7125 46.3341L34.9479 46.4183L34.9585 46.3889L34.9614 46.3577L34.7125 46.3341ZM34.7348 46.1008L34.9836 46.1245L34.7348 46.1008ZM35.1209 39.7995H35.3709V39.7007L35.3034 39.6286L35.1209 39.7995ZM31.7794 36.5693L31.9324 36.3716L31.5814 36.7219L31.7794 36.5693ZM33.9699 39.7995L34.2191 39.7784L34.2145 39.7241L34.1877 39.6766L33.9699 39.7995ZM33.7472 43.8836L33.5002 43.8446L33.7472 43.8836ZM27.7323 50.8267L27.637 51.0578L27.7331 51.0974L27.8289 51.0573L27.7323 50.8267ZM21.7546 43.8836L22.0013 43.8415L21.9991 43.8312L21.7546 43.8836ZM21.5318 39.9109L21.3224 39.7743L21.2851 39.8315L21.2821 39.8998L21.5318 39.9109ZM23.1643 37.4587L22.9566 37.3195V37.3195L23.1643 37.4587ZM30.4823 34.0374L30.2224 34.5201L30.6627 34.7571L30.9226 34.2745L30.4823 34.0374ZM42.9181 41.6407C39.5791 39.1662 33.4642 35.4744 30.8282 33.9399L30.5767 34.372C33.213 35.9067 39.306 39.5862 42.6204 42.0424L42.9181 41.6407ZM42.089 54.7202C42.7737 49.421 42.9944 43.9308 43.0193 41.8446L42.5193 41.8386C42.4946 43.9108 42.2748 49.3809 41.5931 54.6561L42.089 54.7202ZM37.8676 69.0233C40.5008 63.9364 41.7782 57.3686 42.0894 54.7173L41.5928 54.659C41.2852 57.28 40.018 63.7814 37.4235 68.7935L37.8676 69.0233ZM43.6392 55.0791C42.2529 61.2733 38.928 66.7859 37.4457 68.7582L37.8454 69.0586C39.3581 67.0458 42.7214 61.4693 44.1271 55.1883L43.6392 55.0791ZM45.7502 40.9317C45.2166 48.0174 44.1198 53.3157 43.642 55.0679L44.1243 55.1994C44.6118 53.412 45.7131 48.0816 46.2488 40.9693L45.7502 40.9317ZM30.9108 33.7956C36.0596 35.7486 43.0305 39.5224 45.8743 41.1669L46.1246 40.7341C43.2754 39.0865 36.2761 35.296 31.0882 33.3281L30.9108 33.7956ZM31.1451 32.6747L30.7738 33.4544L31.2252 33.6694L31.5965 32.8897L31.1451 32.6747ZM49.3674 38.531C44.2105 36.2656 35.2616 33.5932 31.4371 32.5411L31.3045 33.0232C35.1284 34.0751 44.0459 36.7394 49.1663 38.9888L49.3674 38.531ZM46.9839 55.1971C48.742 48.4924 49.4047 41.4566 49.5166 38.7703L49.017 38.7495C48.9062 41.4097 48.2471 48.4086 46.5002 55.0703L46.9839 55.1971ZM36.4642 76.1596C43.5686 67.5925 46.0755 58.6614 46.9839 55.1971L46.5002 55.0703C45.5978 58.5119 43.1135 67.358 36.0793 75.8404L36.4642 76.1596ZM36.4494 75.4637C36.3107 75.6035 36.1909 75.7242 36.0922 75.8261L36.4513 76.1739C36.5475 76.0747 36.6648 75.9564 36.8043 75.8159L36.4494 75.4637ZM47.3113 61.4962C41.8311 70.0422 37.9439 73.9577 36.4494 75.4637L36.8043 75.8159C38.3168 74.2919 42.2283 70.349 47.7322 61.7661L47.3113 61.4962ZM54.1439 36.6772C51.843 50.6312 50.0289 56.4636 47.3018 61.5124L47.7417 61.75C50.5097 56.6255 52.3342 50.7252 54.6373 36.7585L54.1439 36.6772ZM31.5677 32.2511C41.5352 33.2886 48.9066 35.2151 54.314 36.9558L54.4672 36.4799C49.033 34.7305 41.6272 32.7955 31.6194 31.7538L31.5677 32.2511ZM31.667 31.2966L31.37 31.8907L31.8172 32.1143L32.1142 31.5202L31.667 31.2966ZM49.3178 31.8691C44.2925 30.8222 35.5897 30.9608 31.8773 31.1588L31.9039 31.6581C35.6172 31.46 44.261 31.3263 49.2158 32.3586L49.3178 31.8691ZM44.9616 14.7956C47.1573 17.1803 48.3179 20.5474 48.8549 23.8125C49.3915 27.0747 49.3004 30.2026 49.0196 32.0768L49.5141 32.1509C49.8025 30.2256 49.8934 27.0454 49.3483 23.7314C48.8037 20.4204 47.6189 16.9435 45.3295 14.4569L44.9616 14.7956ZM46.7975 29.3211C47.5236 26.6739 47.4137 23.6546 47.0041 20.97C46.594 18.2822 45.8801 15.9084 45.3804 14.5405L44.9107 14.712C45.4011 16.0545 46.1055 18.396 46.5098 21.0454C46.9145 23.6981 47.015 26.638 46.3153 29.1888L46.7975 29.3211ZM32.0678 30.4244C33.5074 30.0317 36.2121 29.7938 39.034 29.6587C41.8464 29.5241 44.7452 29.4926 46.5547 29.5049L46.5581 29.005C44.7414 28.9926 41.8333 29.0242 39.0101 29.1593C36.1965 29.294 33.4372 29.5326 31.9362 29.942L32.0678 30.4244ZM31.3207 29.7038L31.8034 30.335L32.2006 30.0313L31.7179 29.4001L31.3207 29.7038ZM41.0912 24.8505C39.8199 25.0803 37.9315 25.8847 36.1096 26.7796C34.2789 27.6788 32.4851 28.6847 31.3912 29.3373L31.6474 29.7667C32.7317 29.1198 34.5135 28.1207 36.33 27.2284C38.1553 26.3319 39.986 25.5583 41.1801 25.3426L41.0912 24.8505ZM40.9123 24.8836C40.9041 24.9437 40.896 25.0035 40.8879 25.0629L41.3834 25.1302C41.3914 25.0708 41.3995 25.0111 41.4077 24.9509L40.9123 24.8836ZM35.2515 1.14531C38.9912 6.38082 40.5788 11.0208 41.1471 14.9916C41.7159 18.9656 41.2661 22.2808 40.9123 24.8836L41.4077 24.9509C41.7618 22.3464 42.2217 18.9701 41.6421 14.9208C41.0621 10.8684 39.4432 6.15342 35.6584 0.85469L35.2515 1.14531ZM38.559 23.3264C40.4743 13.7798 37.5137 4.67076 35.6799 0.890877L35.23 1.10912C37.0348 4.82924 39.9554 13.8241 38.0687 23.2281L38.559 23.3264ZM31.0725 28.8629L38.4611 23.4793L38.1666 23.0752L30.778 28.4588L31.0725 28.8629ZM30.1649 28.0265L30.7218 28.8062L31.1287 28.5156L30.5717 27.7359L30.1649 28.0265ZM32.4536 25.3682L30.1887 27.7073L30.5479 28.0551L32.8128 25.716L32.4536 25.3682ZM29.3124 22.9904C30.8449 23.5864 32.026 25.0279 32.4198 25.6724L32.8465 25.4117C32.4235 24.7196 31.1689 23.176 29.4936 22.5244L29.3124 22.9904ZM29.3078 26.7034C29.8477 26.4938 30.2085 26.1882 30.4133 25.8129C30.6169 25.4398 30.6503 25.0271 30.5915 24.631C30.4755 23.8492 29.9926 23.0719 29.5946 22.5969L29.2113 22.918C29.5807 23.3588 30 24.0518 30.0969 24.7044C30.1445 25.0255 30.112 25.3211 29.9743 25.5734C29.8378 25.8236 29.582 26.0606 29.1269 26.2372L29.3078 26.7034ZM26.2842 26.7203H29.2173V26.2203H26.2842V26.7203ZM25.9014 22.6036C24.9306 23.8475 24.7074 24.805 24.9186 25.515C25.1293 26.223 25.7426 26.5874 26.221 26.7122L26.3473 26.2284C25.9718 26.1304 25.5418 25.8562 25.3978 25.3724C25.2545 24.8906 25.3654 24.103 26.2956 22.9112L25.9014 22.6036ZM23.2071 25.6459C23.4955 25.0142 24.0458 24.4371 24.6362 23.9676C25.2239 23.5003 25.8304 23.1561 26.203 22.9845L25.994 22.5303C25.5869 22.7177 24.9459 23.0826 24.325 23.5763C23.7069 24.0678 23.0876 24.7037 22.7523 25.4383L23.2071 25.6459ZM24.8794 27.4238L23.1715 25.3817L22.7879 25.7025L24.4959 27.7445L24.8794 27.4238ZM24.5399 28.4385L24.9112 27.696L24.464 27.4724L24.0927 28.2149L24.5399 28.4385ZM17.0438 23.5189L24.1725 28.5312L24.4601 28.1222L17.3314 23.1098L17.0438 23.5189ZM19.409 0.93712C15.4025 10.1163 16.0934 19.7054 16.9441 23.3709L17.4312 23.2578C16.5987 19.6708 15.9134 10.1956 19.8672 1.13714L19.409 0.93712ZM18.9329 2.8489C19.2288 2.3092 19.5373 1.74661 19.8578 1.15644L19.4184 0.917814C19.0985 1.50697 18.7905 2.06871 18.4945 2.60851L18.9329 2.8489ZM14.4288 25.0704C13.8076 19.1684 13.9369 15.4457 14.7125 12.2909C15.4889 9.13306 16.9161 6.52715 18.9329 2.8489L18.4945 2.60851C16.4839 6.27534 15.0218 8.93895 14.227 12.1715C13.4314 15.4072 13.3077 19.1959 13.9316 25.1227L14.4288 25.0704ZM23.4582 29.2736C19.4804 26.4622 15.6644 25.1562 14.2321 24.852L14.1283 25.3411C15.4931 25.6309 19.2464 26.9091 23.1696 29.6819L23.4582 29.2736ZM23.3181 30.0652L23.5409 29.5825L23.0869 29.373L22.8641 29.8556L23.3181 30.0652ZM8.81674 29.5784C12.0875 29.3132 19.6705 29.8869 23.0675 30.2093L23.1147 29.7115C19.7295 29.3903 12.0996 28.8106 8.77633 29.08L8.81674 29.5784ZM9.94283 14.5225C7.44627 19.9969 7.97706 26.7065 8.55212 29.3817L9.04095 29.2767C8.4774 26.6549 7.96363 20.0675 10.3978 14.73L9.94283 14.5225ZM6.40955 32.2047C6.0761 28.1662 6.10628 25.1697 6.69687 22.5052C7.28636 19.8456 8.43809 17.4999 10.3742 14.7709L9.9664 14.4816C8.004 17.2476 6.81662 19.6543 6.20871 22.397C5.6019 25.1347 5.57638 28.1902 5.91125 32.2458L6.40955 32.2047ZM23.115 31.1596C16.2818 30.5031 8.93722 31.4324 6.11283 31.9798L6.20797 32.4707C9.00239 31.929 16.2964 31.0068 23.0672 31.6573L23.115 31.1596ZM23.5479 31.9147L23.3252 31.3206L22.857 31.4962L23.0798 32.0903L23.5479 31.9147ZM1.08949 36.9511C6.90866 34.7061 18.3425 32.882 23.3452 32.2505L23.2826 31.7544C18.2852 32.3853 6.79333 34.2147 0.909529 36.4846L1.08949 36.9511ZM1.72416 39.2537C1.56825 38.4103 1.40916 37.5497 1.24526 36.6719L0.753759 36.7637C0.917554 37.6409 1.07657 38.5011 1.23249 39.3446L1.72416 39.2537ZM6.50066 58.2633C4.32442 53.3115 3.16007 47.0211 1.72416 39.2537L1.23249 39.3446C2.66474 47.0922 3.8382 53.4479 6.04292 58.4644L6.50066 58.2633ZM17.2015 73.4719C13.3478 69.0131 10.1929 65.3625 6.49359 58.2485L6.04998 58.4792C9.77692 65.6464 12.9631 69.3326 16.8232 73.7988L17.2015 73.4719ZM19.2346 75.8381C18.5327 75.0121 17.8568 74.2301 17.2015 73.4719L16.8232 73.7988C17.4787 74.5572 18.1533 75.3377 18.8535 76.1619L19.2346 75.8381ZM5.91059 38.7695C6.62595 57.3988 12.8456 67.8417 18.8414 76.1463L19.2468 75.8537C13.2871 67.5989 7.12059 57.2498 6.41022 38.7503L5.91059 38.7695ZM24.0431 32.5373C19.1172 33.5524 10.0008 36.957 6.06768 38.5277L6.25312 38.9921C10.1913 37.4193 19.268 34.0318 24.144 33.027L24.0431 32.5373ZM24.6575 33.4634L24.3234 32.6837L23.8638 32.8807L24.1979 33.6604L24.6575 33.4634ZM9.69529 41.0715C10.2327 40.6415 11.1732 40.0768 12.3596 39.4402C13.5414 38.8062 14.9529 38.1085 16.4221 37.4125C19.3605 36.0206 22.5223 34.639 24.5251 33.7921L24.3304 33.3316C22.3233 34.1803 19.1546 35.5648 16.2081 36.9606C14.7349 37.6585 13.3153 38.3601 12.1232 38.9996C10.9357 39.6367 9.95936 40.2199 9.38294 40.681L9.69529 41.0715ZM9.86154 41.8533C9.83724 41.5201 9.81302 41.1882 9.78843 40.8577L9.2898 40.8948C9.31437 41.2249 9.33856 41.5564 9.36287 41.8897L9.86154 41.8533ZM17.8075 68.7751C11.0436 58.0449 10.4241 49.5641 9.86154 41.8533L9.36287 41.8897C9.92673 49.6185 10.5522 58.203 17.3846 69.0417L17.8075 68.7751ZM12.3338 41.8489C12.5865 50.4282 13.3116 56.052 14.2419 60.1173C15.1731 64.1868 16.3084 66.6873 17.3686 69.0121L17.8235 68.8047C16.7673 66.4884 15.649 64.0249 14.7293 60.0058C13.8087 55.9826 13.0857 50.3936 12.8336 41.8342L12.3338 41.8489ZM24.569 33.9359C21.9124 35.3686 15.3739 39.6686 12.4444 41.634L12.7229 42.0492C15.6597 40.079 22.1757 35.7947 24.8063 34.376L24.569 33.9359ZM25.1976 34.5076L24.9005 34.0249L24.4747 34.287L24.7717 34.7696L25.1976 34.5076ZM18.9996 39.5663C20.7012 37.8354 23.7847 35.702 25.1193 34.8493L24.8501 34.4279C23.5114 35.2832 20.3869 37.4419 18.643 39.2158L18.9996 39.5663ZM19.0709 47.7316C18.8038 42.7744 18.9611 40.1203 19.0683 39.4294L18.5742 39.3528C18.4587 40.0975 18.3042 42.7949 18.5717 47.7585L19.0709 47.7316ZM27.7828 56.3476C25.8184 55.6109 23.951 54.015 22.4074 52.2961C20.8669 50.5809 19.6692 48.7662 19.0403 47.6244L18.6023 47.8657C19.2482 49.0382 20.4675 50.8845 22.0354 52.6302C23.6 54.3724 25.5321 56.0376 27.6073 56.8158L27.7828 56.3476ZM36.2258 47.651C34.2098 52.6179 29.6286 55.5244 27.6008 56.3501L27.7893 56.8132C29.8952 55.9558 34.606 52.9712 36.6891 47.8391L36.2258 47.651ZM36.5047 39.4752C36.6526 43.2321 36.3687 46.5369 36.2097 47.7115L36.7052 47.7786C36.8679 46.5769 37.1534 43.2431 37.0043 39.4555L36.5047 39.4752ZM30.3209 34.857C32.3725 36 35.3489 38.5243 36.5862 39.6502L36.9227 39.2804C35.6847 38.1539 32.6711 35.594 30.5642 34.4202L30.3209 34.857ZM23.9032 36.7748L23.9187 36.7621L23.6004 36.3765L23.585 36.3892L23.9032 36.7748ZM20.5319 39.8156C21.3414 38.8903 23.1082 37.431 23.9032 36.7748L23.585 36.3892C22.8042 37.0336 20.9984 38.523 20.1556 39.4863L20.5319 39.8156ZM20.9258 46.302C20.72 44.7145 20.6061 41.1958 20.5937 39.649L20.0937 39.653C20.1061 41.2002 20.2199 44.7458 20.4299 46.3663L20.9258 46.302ZM27.8359 53.4952C26.2195 52.7592 24.7159 51.4003 23.495 49.984C22.2758 48.5698 21.3554 47.1181 20.9009 46.2211L20.4549 46.4471C20.9285 47.3818 21.872 48.867 23.1163 50.3105C24.3589 51.7519 25.9184 53.1714 27.6287 53.9503L27.8359 53.4952ZM34.4771 46.2499C33.8424 48.0244 32.5554 49.6165 31.2021 50.8817C29.8501 52.1456 28.4503 53.0662 27.6167 53.5011L27.848 53.9444C28.7223 53.4882 30.1591 52.5412 31.5435 51.2469C32.9266 49.9539 34.2757 48.2973 34.9479 46.4183L34.4771 46.2499ZM34.4859 46.077C34.4779 46.1609 34.4704 46.239 34.4636 46.3105L34.9614 46.3577C34.9682 46.2864 34.9756 46.2086 34.9836 46.1245L34.4859 46.077ZM34.8709 39.7995C34.8709 42.0454 34.6102 44.7759 34.4859 46.077L34.9836 46.1245C35.1076 44.8275 35.3709 42.0732 35.3709 39.7995H34.8709ZM31.6263 36.767C32.5286 37.4655 34.2058 39.188 34.9385 39.9704L35.3034 39.6286C34.5757 38.8516 32.8717 37.0988 31.9324 36.3716L31.6263 36.767ZM34.1877 39.6766C33.5253 38.5024 32.4374 37.0135 31.9774 36.4166L31.5814 36.7219C32.0371 37.3132 33.1076 38.7797 33.7522 39.9223L34.1877 39.6766ZM33.9941 43.9226C34.2408 42.3605 34.2829 40.5314 34.2191 39.7784L33.7208 39.8206C33.7808 40.5279 33.7415 42.3163 33.5002 43.8446L33.9941 43.9226ZM27.8289 51.0573C29.8304 50.2186 31.312 48.801 32.3201 47.419C33.3243 46.0424 33.8748 44.6785 33.9941 43.9226L33.5002 43.8446C33.3968 44.4997 32.8891 45.7905 31.9162 47.1243C30.9472 48.4527 29.5328 49.8012 27.6357 50.5961L27.8289 51.0573ZM21.5082 43.9257C21.8464 45.9068 22.94 47.5078 24.1594 48.6994C25.378 49.8902 26.7363 50.6864 27.637 51.0578L27.8276 50.5956C26.9833 50.2474 25.6795 49.4858 24.5088 48.3418C23.339 47.1986 22.3163 45.6879 22.001 43.8416L21.5082 43.9257ZM21.2821 39.8998C21.1921 41.9391 21.3939 43.3937 21.5101 43.936L21.9991 43.8312C21.8925 43.334 21.6933 41.9222 21.7816 39.9219L21.2821 39.8998ZM22.9566 37.3195C22.4036 38.1448 21.7157 39.1713 21.3224 39.7743L21.7412 40.0474C22.1324 39.4477 22.8181 38.4245 23.372 37.5979L22.9566 37.3195ZM23.5515 36.4306C23.398 36.6609 23.1892 36.9725 22.9566 37.3195L23.372 37.5979C23.6044 37.251 23.8136 36.9389 23.9676 36.7079L23.5515 36.4306Z" fill="#EDF1F7"/>
</svg>
