<svg width="58" height="25" viewBox="0 0 58 25" fill="none" xmlns="http://www.w3.org/2000/svg">
<rect width="58" height="24.0415" fill="#EC111A"/>
<path d="M1.95361 2.40405V21.6372H5.40957L5.55983 13.0724L7.06242 21.6372H9.01579L10.5184 13.0724V21.6372H17.1298L17.5806 18.7823H20.2852L20.736 21.6372H27.4977V15.4766H28.249L29.7515 21.6372H33.2075L31.1039 14.4248C32.2881 13.2353 32.8475 12.4376 33.2075 10.2175L35.1609 21.6372H39.3681L42.0728 4.65794V21.6372H48.6842V18.1813H45.5287V13.8237H48.6842V10.2175H45.5287V6.01027H48.6842V2.40405H38.9173L37.2645 14.7253L35.9122 2.40405H32.0054L32.3059 5.25898C31.7049 3.75638 29.7515 2.40405 28.5495 2.40405H23.8914V19.2331L21.4873 2.40405H16.679L14.1246 19.8341V2.40405H9.61683L7.96398 11.8704L6.31113 2.40405H1.95361Z" fill="white"/>
<path d="M49.2852 21.6372V2.40405H52.7412V18.3315H55.7464V21.6372H49.2852Z" fill="white"/>
<path d="M19.0831 7.66308L18.0312 15.3263H20.1349L19.0831 7.66308Z" fill="#EC111A"/>
<path d="M27.4976 11.7201V5.70972C28.8815 6.14666 29.7515 6.91179 29.7515 8.86516C29.7515 10.2175 28.9046 11.5298 27.4976 11.7201Z" fill="#EC111A"/>
</svg>
